<svg width="20" height="20" viewBox="0 0 20 20" fill="none" xmlns="http://www.w3.org/2000/svg">
<path fill-rule="evenodd" clip-rule="evenodd" d="M9.91454 5.66724L11.4158 4.16618L13.4284 2.15249C12.593 2.06551 11.7492 2.19217 10.9763 2.5206C10.2033 2.84902 9.52642 3.36843 9.00923 4.03008C8.49204 4.69174 8.15146 5.47393 8.01947 6.30326C7.88748 7.13258 7.9684 7.98184 8.25464 8.77132L8.71635 10.0416L7.76035 10.996L2.38267 16.3743C2.29795 16.4553 2.23026 16.5523 2.18358 16.6598C2.13689 16.7673 2.11216 16.883 2.11083 17.0001C2.1095 17.1173 2.1316 17.2335 2.17582 17.342C2.22005 17.4505 2.28552 17.5491 2.36838 17.632C2.45124 17.7148 2.54982 17.7803 2.65834 17.8245C2.76685 17.8687 2.88311 17.8908 3.00028 17.8895C3.11746 17.8881 3.23319 17.8634 3.34067 17.8167C3.44815 17.7701 3.54522 17.7024 3.62618 17.6177L9.00528 12.2408L9.95986 11.2849L11.2303 11.7451C12.0199 12.0313 12.8693 12.1122 13.6987 11.9803C14.5281 11.8483 15.3105 11.5078 15.9722 10.9906C16.6339 10.4735 17.1534 9.79677 17.4819 9.02389C17.8104 8.25102 17.9371 7.40737 17.8501 6.57213L15.8361 8.58723L14.3348 10.0855L12.8335 8.5844L11.4172 7.1683L9.91312 5.66724H9.91454ZM18.6573 2.93418C19.5315 4.14097 20.0014 5.59329 20 7.08334C20.0004 8.22093 19.7267 9.34188 19.2021 10.3513C18.6774 11.3607 17.9172 12.2288 16.9858 12.8822C16.0544 13.5356 14.9793 13.955 13.8515 14.1049C12.7236 14.2547 11.5763 14.1307 10.5066 13.7432L5.12887 19.1201C4.84988 19.3991 4.51868 19.6204 4.15416 19.7713C3.78965 19.9223 3.39897 20 3.00442 20C2.60988 20 2.21919 19.9223 1.85468 19.7713C1.49017 19.6204 1.15896 19.3991 0.879975 19.1201C0.316536 18.5568 0 17.7927 0 16.996C0 16.1993 0.316536 15.4352 0.879975 14.8719L6.25766 9.49495C5.73745 8.06106 5.69425 6.49754 6.1345 5.03712C6.57476 3.57671 7.47492 2.29748 8.70099 1.38988C9.92707 0.482267 11.4135 -0.00519796 12.939 4.18034e-05C14.4645 0.00528157 15.9476 0.502946 17.1674 1.41896L15.6435 2.94267L14.4212 4.16476L12.9185 5.66724L14.3348 7.08334L15.8361 5.58228L17.0598 4.35877L18.5837 2.83505L18.6573 2.93418Z" fill="#156963"/>
</svg>
