<svg width="20" height="20" viewBox="0 0 20 20" fill="black" xmlns="http://www.w3.org/2000/svg">
<path d="M20 7.08334C20.0014 5.59329 19.5315 4.14097 18.6573 2.93418L18.5837 2.83505L17.0598 4.35877L15.8361 5.58228L14.3348 7.08334L12.9185 5.66724L14.4212 4.16476L15.6435 2.94267L17.1674 1.41896C15.9476 0.502946 14.4645 0.00528157 12.939 4.18034e-05C11.4135 -0.00519796 9.92707 0.482267 8.70099 1.38988C7.47492 2.29748 6.57476 3.57671 6.1345 5.03712C5.69425 6.49754 5.73745 8.06106 6.25766 9.49495L0.879975 14.8719C0.316536 15.4352 0 16.1993 0 16.996C0 17.7927 0.316536 18.5568 0.879975 19.1201C1.15896 19.3991 1.49017 19.6204 1.85468 19.7713C2.21919 19.9223 2.60988 20 3.00442 20C3.39897 20 3.78965 19.9223 4.15416 19.7713C4.51868 19.6204 4.84988 19.3991 5.12887 19.1201L10.5066 13.7432C11.5763 14.1307 12.7236 14.2547 13.8515 14.1049C14.9793 13.955 16.0544 13.5356 16.9858 12.8822C17.9172 12.2288 18.6774 11.3607 19.2021 10.3513C19.7267 9.34188 20.0004 8.22093 20 7.08334Z" fill="black"/>
</svg>
