<svg width="25" height="26" viewBox="0 0 25 26" fill="none" xmlns="http://www.w3.org/2000/svg">
<path d="M10.2678 5.57146H14.732C14.732 4.95578 14.4969 4.36532 14.0783 3.92997C13.6597 3.49461 13.0919 3.25003 12.4999 3.25003C11.9079 3.25003 11.3401 3.49461 10.9215 3.92997C10.5029 4.36532 10.2678 4.95578 10.2678 5.57146ZM8.92847 5.57146C8.92847 4.58637 9.30474 3.64163 9.97451 2.94507C10.6443 2.2485 11.5527 1.85718 12.4999 1.85718C13.4471 1.85718 14.3555 2.2485 15.0253 2.94507C15.695 3.64163 16.0713 4.58637 16.0713 5.57146H21.6517C21.8293 5.57146 21.9996 5.64484 22.1252 5.77544C22.2508 5.90605 22.3213 6.08319 22.3213 6.26789C22.3213 6.4526 22.2508 6.62974 22.1252 6.76034C21.9996 6.89095 21.8293 6.96432 21.6517 6.96432H20.482L19.3954 20.5243C19.3164 21.5107 18.8838 22.4302 18.1834 23.1005C17.483 23.7708 16.566 24.1428 15.6142 24.1429H9.38561C8.43382 24.1428 7.51681 23.7708 6.81642 23.1005C6.11603 22.4302 5.68341 21.5107 5.60436 20.5243L4.51775 6.96432H3.34811C3.17051 6.96432 3.00018 6.89095 2.8746 6.76034C2.74902 6.62974 2.67847 6.4526 2.67847 6.26789C2.67847 6.08319 2.74902 5.90605 2.8746 5.77544C3.00018 5.64484 3.17051 5.57146 3.34811 5.57146H8.92847ZM6.93918 20.4082C6.99024 21.0465 7.27009 21.6415 7.72324 22.0753C8.17639 22.5091 8.76973 22.7499 9.38561 22.75H15.6142C16.2301 22.7499 16.8234 22.5091 17.2766 22.0753C17.7297 21.6415 18.0095 21.0465 18.0606 20.4082L19.1392 6.96432H5.8615L6.93918 20.4082ZM10.491 10.2143C10.6686 10.2143 10.8389 10.2877 10.9645 10.4183C11.0901 10.5489 11.1606 10.726 11.1606 10.9107V18.8036C11.1606 18.9883 11.0901 19.1655 10.9645 19.2961C10.8389 19.4267 10.6686 19.5 10.491 19.5C10.3134 19.5 10.143 19.4267 10.0175 19.2961C9.89188 19.1655 9.82132 18.9883 9.82132 18.8036V10.9107C9.82132 10.726 9.89188 10.5489 10.0175 10.4183C10.143 10.2877 10.3134 10.2143 10.491 10.2143ZM15.1785 10.9107C15.1785 10.726 15.1079 10.5489 14.9823 10.4183C14.8568 10.2877 14.6864 10.2143 14.5088 10.2143C14.3312 10.2143 14.1609 10.2877 14.0353 10.4183C13.9097 10.5489 13.8392 10.726 13.8392 10.9107V18.8036C13.8392 18.9883 13.9097 19.1655 14.0353 19.2961C14.1609 19.4267 14.3312 19.5 14.5088 19.5C14.6864 19.5 14.8568 19.4267 14.9823 19.2961C15.1079 19.1655 15.1785 18.9883 15.1785 18.8036V10.9107Z" fill="white"/>
</svg>
