<svg width="25" height="26" viewBox="0 0 25 26" fill="none" xmlns="http://www.w3.org/2000/svg">
<path d="M20.3125 13C20.3125 12.7845 20.3948 12.5778 20.5413 12.4255C20.6878 12.2731 20.8865 12.1875 21.0938 12.1875C21.301 12.1875 21.4997 12.2731 21.6462 12.4255C21.7927 12.5778 21.875 12.7845 21.875 13V21.9375C21.875 22.153 21.7927 22.3597 21.6462 22.512C21.4997 22.6644 21.301 22.75 21.0938 22.75H3.90625C3.69905 22.75 3.50034 22.6644 3.35382 22.512C3.20731 22.3597 3.125 22.153 3.125 21.9375V4.0625C3.125 3.84701 3.20731 3.64035 3.35382 3.48798C3.50034 3.3356 3.69905 3.25 3.90625 3.25H12.5C12.7072 3.25 12.9059 3.3356 13.0524 3.48798C13.1989 3.64035 13.2812 3.84701 13.2812 4.0625C13.2812 4.27799 13.1989 4.48465 13.0524 4.63702C12.9059 4.7894 12.7072 4.875 12.5 4.875H4.6875V21.125H20.3125V13Z" fill="white"/>
<path d="M11.4734 14.0725L12.7625 13.8808L20.6812 5.64691C20.7558 5.57196 20.8154 5.48231 20.8563 5.38318C20.8973 5.28405 20.9188 5.17744 20.9197 5.06955C20.9206 4.96167 20.9008 4.85468 20.8616 4.75483C20.8223 4.65497 20.7643 4.56426 20.6909 4.48797C20.6176 4.41168 20.5303 4.35135 20.4343 4.3105C20.3383 4.26964 20.2354 4.24909 20.1317 4.25002C20.028 4.25096 19.9254 4.27338 19.8301 4.31596C19.7348 4.35854 19.6486 4.42044 19.5765 4.49804L11.6562 12.7319L11.4719 14.0725H11.4734ZM21.7859 3.34754C22.0037 3.5739 22.1765 3.84268 22.2944 4.13851C22.4122 4.43435 22.4729 4.75144 22.4729 5.07167C22.4729 5.39189 22.4122 5.70898 22.2944 6.00482C22.1765 6.30065 22.0037 6.56943 21.7859 6.79579L13.6844 15.2214C13.5649 15.3461 13.4097 15.4271 13.2422 15.4522L10.664 15.8357C10.5439 15.8536 10.4214 15.8422 10.3062 15.8023C10.191 15.7624 10.0864 15.6952 10.0006 15.6059C9.91472 15.5167 9.85007 15.4078 9.81173 15.2881C9.77339 15.1683 9.76241 15.0409 9.77966 14.9159L10.1484 12.2347C10.1721 12.0606 10.2494 11.8993 10.3687 11.7748L18.4718 3.34917C18.9114 2.8922 19.5074 2.6355 20.1289 2.6355C20.7504 2.6355 21.3464 2.8922 21.7859 3.34917V3.34754Z" fill="white"/>
</svg>
