<svg width="206" height="225" viewBox="0 0 206 225" fill="none" xmlns="http://www.w3.org/2000/svg">
<path d="M184.93 113.41C184.12 112.94 183.23 112.49 182.31 112.05C183.23 111.61 184.12 111.16 184.93 110.69C189.516 108.083 193.54 104.594 196.772 100.425C200.005 96.2559 202.38 91.4886 203.762 86.3977C205.144 81.3068 205.506 75.9928 204.826 70.7616C204.146 65.5304 202.438 60.4853 199.8 55.9169C197.163 51.3485 193.647 47.3469 189.457 44.1426C185.267 40.9382 180.484 38.5944 175.384 37.246C170.284 35.8977 164.967 35.5714 159.741 36.2861C154.514 37.0007 149.481 38.7421 144.93 41.41C144.12 41.88 143.28 42.41 142.45 43C142.53 42 142.58 41 142.58 40C142.58 29.3913 138.366 19.2172 130.864 11.7157C123.363 4.21427 113.188 0 102.58 0C91.9711 0 81.797 4.21427 74.2955 11.7157C66.7941 19.2172 62.5798 29.3913 62.5798 40C62.5798 40.94 62.5798 41.94 62.7098 43C61.8798 42.43 61.0398 41.88 60.2298 41.41C55.679 38.7421 50.6454 37.0007 45.4188 36.2861C40.1922 35.5714 34.8759 35.8977 29.7759 37.246C24.676 38.5944 19.8931 40.9382 15.7026 44.1426C11.5121 47.3469 7.9969 51.3485 5.35924 55.9169C2.72158 60.4853 1.01361 65.5304 0.333669 70.7616C-0.346275 75.9928 0.015234 81.3068 1.39738 86.3977C2.77953 91.4886 5.15502 96.2559 8.38709 100.425C11.6192 104.594 15.644 108.083 20.2298 110.69C21.0398 111.16 21.9298 111.61 22.8498 112.05C21.9298 112.49 21.0398 112.94 20.2298 113.41C15.644 116.017 11.6192 119.506 8.38709 123.675C5.15502 127.844 2.77953 132.611 1.39738 137.702C0.015234 142.793 -0.346275 148.107 0.333669 153.338C1.01361 158.57 2.72158 163.615 5.35924 168.183C7.9969 172.752 11.5121 176.753 15.7026 179.957C19.8931 183.162 24.676 185.506 29.7759 186.854C34.8759 188.202 40.1922 188.529 45.4188 187.814C50.6454 187.099 55.679 185.358 60.2298 182.69C61.0398 182.22 61.8798 181.69 62.7098 181.1C62.6298 182.1 62.5798 183.1 62.5798 184.05C62.5798 194.659 66.7941 204.833 74.2955 212.334C81.797 219.836 91.9711 224.05 102.58 224.05C113.188 224.05 123.363 219.836 130.864 212.334C138.366 204.833 142.58 194.659 142.58 184.05C142.58 183.11 142.53 182.11 142.45 181.1C143.28 181.67 144.12 182.22 144.93 182.69C150.989 186.2 157.867 188.049 164.87 188.05C168.388 188.045 171.891 187.581 175.29 186.67C182.932 184.622 189.794 180.354 195.01 174.405C200.226 168.456 203.561 161.095 204.593 153.251C205.625 145.407 204.307 137.433 200.807 130.338C197.307 123.243 191.782 117.345 184.93 113.39V113.41ZM78.5798 112.05C78.5798 107.303 79.9874 102.663 82.6245 98.7163C85.2617 94.7695 89.01 91.6934 93.3954 89.8769C97.7808 88.0604 102.606 87.5851 107.262 88.5112C111.917 89.4372 116.194 91.723 119.55 95.0794C122.907 98.4359 125.193 102.712 126.119 107.368C127.045 112.023 126.569 116.849 124.753 121.234C122.936 125.62 119.86 129.368 115.913 132.005C111.967 134.642 107.327 136.05 102.58 136.05C96.2146 136.05 90.1101 133.521 85.6092 129.021C81.1083 124.52 78.5798 118.415 78.5798 112.05ZM152.93 55.26C155.659 53.6841 158.672 52.6613 161.797 52.25C164.922 51.8386 168.097 52.0467 171.142 52.8625C174.186 53.6783 177.04 55.0857 179.54 57.0044C182.041 58.9231 184.139 61.3155 185.715 64.045C187.291 66.7745 188.313 69.7877 188.725 72.9125C189.136 76.0373 188.928 79.2126 188.112 82.2569C187.297 85.3013 185.889 88.1552 183.97 90.6556C182.052 93.1561 179.659 95.2541 176.93 96.83C170.66 100.46 158.32 102.96 141.77 104.02C140.024 95.5535 135.582 87.8805 129.11 82.15C138.31 68.33 146.66 58.89 152.93 55.26ZM102.58 16.05C108.945 16.05 115.049 18.5786 119.55 23.0794C124.051 27.5803 126.58 33.6848 126.58 40.05C126.58 47.29 122.58 59.24 115.22 74.11C107.017 71.3634 98.1426 71.3634 89.9398 74.11C82.5798 59.24 78.5798 47.29 78.5798 40.05C78.5798 33.6848 81.1083 27.5803 85.6092 23.0794C90.1101 18.5786 96.2146 16.05 102.58 16.05ZM19.4398 64.05C21.0152 61.3194 23.1132 58.9259 25.6138 57.0062C28.1145 55.0866 30.9688 53.6784 34.0138 52.8621C37.0588 52.0458 40.2348 51.8375 43.3603 52.2489C46.4859 52.6603 49.4998 53.6835 52.2298 55.26C58.4998 58.89 66.8498 68.33 76.0498 82.15C69.5719 87.8883 65.1296 95.5727 63.3898 104.05C46.8398 102.99 34.4998 100.49 28.2298 96.87C25.4952 95.2946 23.0981 93.1953 21.1759 90.6923C19.2536 88.1892 17.8439 85.3317 17.0275 82.2832C16.211 79.2347 16.0038 76.055 16.4177 72.9263C16.8317 69.7976 17.8586 66.7813 19.4398 64.05ZM52.2298 168.84C46.7173 172.023 40.1662 172.885 34.0178 171.238C27.8695 169.59 22.6274 165.568 19.4448 160.055C16.2622 154.542 15.3998 147.991 17.0473 141.843C18.6948 135.695 22.7173 130.453 28.2298 127.27C34.4998 123.64 46.8398 121.14 63.3898 120.08C65.1357 128.546 69.5774 136.22 76.0498 141.95C66.8498 155.77 58.4998 165.21 52.2298 168.84ZM102.58 208.05C96.2146 208.05 90.1101 205.521 85.6092 201.021C81.1083 196.52 78.5798 190.415 78.5798 184.05C78.5798 176.81 82.5798 164.86 89.9398 149.99C98.1426 152.737 107.017 152.737 115.22 149.99C122.58 164.86 126.58 176.81 126.58 184.05C126.58 190.415 124.051 196.52 119.55 201.021C115.049 205.521 108.945 208.05 102.58 208.05ZM185.72 160.05C184.144 162.781 182.046 165.174 179.546 167.094C177.045 169.013 174.191 170.422 171.146 171.238C168.101 172.054 164.925 172.263 161.799 171.851C158.674 171.44 155.66 170.416 152.93 168.84C146.66 165.21 138.31 155.77 129.11 141.95C135.588 136.212 140.03 128.527 141.77 120.05C158.32 121.11 170.66 123.61 176.93 127.23C179.664 128.805 182.061 130.905 183.984 133.408C185.906 135.911 187.316 138.768 188.132 141.817C188.949 144.865 189.156 148.045 188.742 151.174C188.328 154.302 187.301 157.319 185.72 160.05Z" fill="black"/>
</svg>
